<?xml version="1.0" encoding="utf-8"?>
<!-- Generator: Adobe Illustrator 16.0.0, SVG Export Plug-In . SVG Version: 6.00 Build 0)  -->
<!DOCTYPE svg PUBLIC "-//W3C//DTD SVG 1.1//EN" "http://www.w3.org/Graphics/SVG/1.1/DTD/svg11.dtd">
<svg version="1.1" id="Layer_1" xmlns="http://www.w3.org/2000/svg" xmlns:xlink="http://www.w3.org/1999/xlink" x="0px" y="0px"
	 width="703.998px" height="114.979px" viewBox="0 0 703.998 114.979" enable-background="new 0 0 703.998 114.979"
	 xml:space="preserve">
<g>
	<path fill="#FFFFFF" d="M56.444,79.258c0.162-1.771,1.449-3.217,3.212-3.217h16.066c1.767,0,3.215,1.445,3.215,3.217
		c0,21.521-16.068,36.781-38.236,36.781c-22.168,0-35.985-16.217-38.233-35.496c-1.604-13.496-1.604-31.488,0-44.981
		C4.716,16.286,18.533,0.061,40.701,0.061c22.168,0,38.236,15.256,38.236,36.787c0,1.762-1.448,3.213-3.215,3.213H59.656
		c-1.763,0-3.05-1.451-3.212-3.213c-0.643-8.355-6.585-14.133-15.743-14.133c-9.797,0-14.78,5.778-15.584,12.848
		c-1.603,13.493-1.603,31.485,0,44.981c0.804,7.066,5.787,12.854,15.584,12.854C49.859,93.396,55.802,87.609,56.444,79.258z"/>
	<path fill="#FFFFFF" d="M132.559,45.2c0,0.962,0.643,1.609,1.607,1.609h24.42c0.961,0,1.603-0.646,1.603-1.609V5.039
		c0-1.768,1.447-3.215,3.216-3.215h16.064c1.765,0,3.211,1.447,3.211,3.215v106.025c0,1.764-1.446,3.211-3.211,3.211h-16.064
		c-1.769,0-3.216-1.447-3.216-3.211V70.9c0-0.959-0.642-1.598-1.603-1.598h-24.42c-0.964,0-1.607,0.639-1.607,1.598v40.164
		c0,1.764-2.246,3.211-4.012,3.211h-15.263c-1.769,0-3.211-1.447-3.211-3.211V5.039c0-1.768,1.442-3.215,3.211-3.215h16.063
		c1.77,0,3.213,1.447,3.213,3.215V45.2z"/>
	<path fill="#FFFFFF" d="M233.254,111.867c-0.323,1.449-1.608,2.408-3.054,2.408h-16.867c-2.568,0-3.536-1.762-3.216-3.211
		l28.76-106.827c0.321-1.444,1.606-2.414,3.05-2.414h21.527c1.445,0,2.729,0.969,3.052,2.414l28.595,106.827
		c0.323,1.449-0.643,3.211-3.211,3.211h-16.869c-1.447,0-2.569-0.959-3.052-2.408l-4.982-16.549
		c-0.322-1.283-0.965-2.402-2.409-2.402h-24.417c-1.446,0-2.09,0.957-2.413,2.402L233.254,111.867z M243.855,68.656
		c-0.322,1.285,0.323,1.764,1.287,1.764h14.779c0.964,0,1.606-0.479,1.283-1.764l-7.71-38.557c-0.159-0.478-0.321-0.645-0.802-0.645
		h-0.322c-0.481,0-0.641,0.167-0.806,0.645L243.855,68.656z"/>
	<path fill="#FFFFFF" d="M348.243,69.303c-0.962,0-1.604,0.639-1.604,1.598v40.164c0,1.764-1.445,3.211-3.212,3.211h-16.065
		c-1.767,0-3.214-1.447-3.214-3.211V5.039c0-1.768,1.447-3.215,3.214-3.215H362.7c18.477,0,33.74,15.262,33.74,33.738
		c0,12.371-5.297,20.723-16.709,28.432c-2.246,1.604-2.09,2.891-0.965,5.309l17.193,40.156c1.125,2.408,0.154,4.816-3.059,4.816
		h-16.537c-2.572,0-3.865-1.279-4.658-3.211l-16.388-39.678c-0.325-0.807-1.134-2.084-2.896-2.084H348.243z M348.243,24.315
		c-0.962,0-1.604,0.641-1.604,1.603V45.2c0,0.962,0.642,1.609,1.604,1.609H362.7c6.104,0,11.248-4.983,11.248-11.247
		c0-6.107-5.145-11.247-11.248-11.247H348.243z"/>
	<path fill="#FFFFFF" d="M425.905,24.315c-1.77,0-3.215-1.444-3.215-3.214V5.039c0-1.768,1.445-3.215,3.215-3.215h69.08
		c1.764,0,3.209,1.447,3.209,3.215v16.063c0,1.77-1.445,3.214-3.209,3.214h-21.688c-0.967,0-1.611,0.641-1.611,1.603v85.146
		c0,1.764-1.445,3.211-3.209,3.211h-16.064c-1.771,0-3.215-1.447-3.215-3.211V25.918c0-0.962-0.648-1.603-1.604-1.603H425.905z"/>
	<path fill="#FFFFFF" d="M550.948,25.118c0-0.962-0.633-1.601-1.598-1.601h-16.064c-1.77,0-3.215-1.449-3.215-3.215V5.039
		c0-1.768,1.445-3.215,3.215-3.215h57.826c1.773,0,3.217,1.447,3.217,3.215v15.263c0,1.766-1.443,3.215-3.217,3.215h-16.055
		c-0.967,0-1.613,0.639-1.613,1.601v65.861c0,0.969,0.646,1.611,1.613,1.611h17.668c1.764,0,3.209,1.445,3.209,3.217v15.258
		c0,1.764-1.445,3.211-3.209,3.211h-61.051c-1.771,0-3.209-1.447-3.209-3.211V95.807c0-1.771,1.438-3.217,3.209-3.217h17.676
		c0.965,0,1.598-0.643,1.598-1.611V25.118z"/>
	<path fill="#FFFFFF" d="M702.028,35.562c1.609,13.493,1.609,31.485,0,44.981c-2.246,19.279-16.057,35.496-38.234,35.496
		c-22.164,0-35.984-16.217-38.227-35.496c-1.619-13.496-1.619-31.488,0-44.981c2.242-19.276,16.063-35.501,38.227-35.501
		C685.972,0.061,699.782,16.286,702.028,35.562z M648.21,35.562c-1.598,13.493-1.598,31.485,0,44.981
		c0.807,7.066,5.787,12.854,15.584,12.854c9.803,0,14.777-5.787,15.584-12.854c1.605-13.496,1.605-31.488,0-44.981
		c-0.807-7.069-5.781-12.848-15.584-12.848C653.997,22.714,649.017,28.493,648.21,35.562z"/>
</g>
</svg>
